{
	"asset":{
		"version":"2.0",
		"generator":"Created using the official Cinema 4D glTF Exporter 1.000x284978"
	},
	"scenes":[{
		"nodes":[0]
	}],
	"nodes":[{
		"name":"Boat",
		"translation":[-476.9666442871094,
		4.540013313293457,
		335.6385803222656],
		"rotation":[0.0,
		-0.4394666254520416,
		0.0,
		-0.8982589244842529],
		"scale":[1.0,
		1.0,
		1.0],
		"mesh":0
	}],
	"meshes":[{
		"primitives":[{
			"attributes":{
				"POSITION":1,
				"NORMAL":2,
				"TEXCOORD_0":3
			},
			"indices":0,
			"material":0
		}],
		"name":"Boat"
	}],
	"materials":[{
		"pbrMetallicRoughness":{
			"baseColorFactor":[0.44159999999999996,
			0.5798399999999998,
			0.96,
			1.0],
			"metallicFactor":0.0,
			"roughnessFactor":0.5
		},
		"emissiveFactor":[0.0,
		0.0,
		0.0],
		"alphaMode":"OPAQUE",
		"doubleSided":false,
		"name":"材质.3"
	}],
	"accessors":[{
		"bufferView":0,
		"type":"SCALAR",
		"componentType":5123,
		"max":[275],
		"count":276,
		"byteOffset":0,
		"min":[0]
	},
	{
		"bufferView":1,
		"type":"VEC3",
		"componentType":5126,
		"max":[631.7951049804688,
		152.3950958251953,
		175.20645141601563],
		"count":276,
		"byteOffset":0,
		"min":[490.49462890625,
		0.007578710559755564,
		99.79653930664063]
	},
	{
		"bufferView":1,
		"type":"VEC3",
		"componentType":5126,
		"max":[0.9952297806739807,
		1.0,
		0.9999765753746033],
		"count":276,
		"byteOffset":12,
		"min":[-0.9964393973350525,
		-1.0,
		-0.999923050403595]
	},
	{
		"bufferView":1,
		"type":"VEC2",
		"componentType":5126,
		"max":[0.924466073513031,
		0.8779261112213135],
		"count":276,
		"byteOffset":24,
		"min":[0.39705896377563479,
		0.5420705080032349]
	}],
	"bufferViews":[{
		"buffer":0,
		"byteOffset":0,
		"byteLength":552,
		"target":34963
	},
	{
		"buffer":0,
		"byteOffset":552,
		"byteLength":8832,
		"target":34962,
		"byteStride":32
	}],
	"buffers":[{
		"uri":"data:application/octet-stream;base64,",
		"byteLength":9384
	}]
}